PathFileType	4	(X/Y/Z)	E:\Marcel_BSc\Ayumi_22_01_2025\22-01-2025\sumo_dl_1.trc
DataRate	CameraRate	NumFrames	NumMarkers	Units	OrigDataRate	OrigDataStartFrame	OrigNumFrames
200.0	200.0	4	47	mm	200.0	1917	2190	
Frame#	Time	FHD			LBHD			RBHD			RBAR			LBAR			RSACR			LSACR			USACR			C7			CLAV			T10			RSHO			LSHO			LTHI1			LTHI3			LTHI2			LTIB1			LTIB2			LTIB3			LMMAL			LLMAL			LHEE			LMT1			LMT5			LMT3			RTHI1			RTHI2			RTHI3			RTIB1			RTIB3			RTIB2			RLMAL			RMMAL			RHEE			RMT5			RMT1			RMT3			LDUPA			LMUPA			LUUPA			LRAD			RUL			RRAD			RUFIN			RMUPA			RDUPA			RUUPA			
		X1	Y1	Z1	X2	Y2	Z2	X3	Y3	Z3	X4	Y4	Z4	X5	Y5	Z5	X6	Y6	Z6	X7	Y7	Z7	X8	Y8	Z8	X9	Y9	Z9	X10	Y10	Z10	X11	Y11	Z11	X12	Y12	Z12	X13	Y13	Z13	X14	Y14	Z14	X15	Y15	Z15	X16	Y16	Z16	X17	Y17	Z17	X18	Y18	Z18	X19	Y19	Z19	X20	Y20	Z20	X21	Y21	Z21	X22	Y22	Z22	X23	Y23	Z23	X24	Y24	Z24	X25	Y25	Z25	X26	Y26	Z26	X27	Y27	Z27	X28	Y28	Z28	X29	Y29	Z29	X30	Y30	Z30	X31	Y31	Z31	X32	Y32	Z32	X33	Y33	Z33	X34	Y34	Z34	X35	Y35	Z35	X36	Y36	Z36	X37	Y37	Z37	X38	Y38	Z38	X39	Y39	Z39	X40	Y40	Z40	X41	Y41	Z41	X42	Y42	Z42	X43	Y43	Z43	X44	Y44	Z44	X45	Y45	Z45	X46	Y46	Z46	X47	Y47	Z47	
1917	9.575	-47.148827	1400.1318	-1006.7425	-34.742741	1385.8821	-944.68988	-8.1123304	1362.5938	-1074.2212	220.19595	236.59726	-2125.6904	260.13245	249.43918	94.690666	441.66592	878.09833	-1032.0314	445.858	881.52002	-959.54285	434.46793	889.18079	-996.38977	139.72192	1225.1766	-987.97632	65.265419	1087.4513	-991.51038	331.76654	1038.1121	-1000.9358	66.156937	1130.2721	-1157.4622	92.816002	1133.0063	-823.9483	385.16232	574.06366	-701.78802	374.61407	509.92947	-690.53552	338.72559	539.18329	-668.49829	323.84668	244.97704	-554.20062	361.23932	228.72221	-584.26099	334.46964	180.05435	-549.82404	270.90826	68.863449	-577.35828	328.76703	72.056664	-531.75562	333.30106	31.513254	-582.79578	186.20227	44.790936	-453.94318	255.37003	29.378092	-411.1087	207.54742	39.465031	-426.52841	379.73917	567.44427	-1266.7902	332.17969	536.1817	-1299.3719	369.72629	503.84027	-1281.8113	325.69788	277.48868	-1409.6534	336.4241	212.97664	-1415.2708	363.84695	262.53122	-1380.6375	335.51221	72.724808	-1446.2738	262.75235	70.074394	-1412.1589	338.2168	29.731689	-1393.3026	258.77362	26.467491	-1566.8226	199.81767	35.090794	-1534.4037	221.77313	33.692814	-1556.2388	246.09111	982.61041	-749.25336	197.1378	973.06421	-749.23206	184.80933	1032.5719	-758.62592	227.12344	667.21533	-655.02466	262.80124	692.1355	-1332.5826	227.56071	678.44202	-1283.604	212.36966	615.5639	-1302.9647	173.33678	1063.1708	-1231.6849	201.37283	1010.193	-1252.2645	218.62061	1082.4355	-1224.6404
1918	9.58	-44.963444	1403.647	-1006.2288	-32.546623	1389.1539	-944.29578	-6.0098367	1365.9919	-1073.9213	220.22403	236.5977	-2125.7073	260.15594	249.46008	94.691833	440.99969	878.41534	-1031.9393	445.13574	881.95416	-959.43451	433.70959	889.74609	-996.19348	141.09296	1228.1265	-987.89142	66.59922	1090.5986	-991.15485	332.23523	1038.8713	-1000.8842	67.524452	1133.725	-1157.4786	94.248627	1136.1686	-823.78741	384.54037	574.20508	-701.99384	374.20041	510.18668	-690.77673	338.24316	538.95325	-669.37231	324.5639	245.81009	-553.58014	361.20151	228.66415	-584.55255	334.25919	180.00168	-550.00482	270.84222	68.839317	-577.43372	328.75467	72.060066	-531.79163	333.33023	31.470987	-582.80872	186.1859	44.796055	-453.94437	254.18791	27.535219	-410.57816	207.55078	39.476917	-426.53226	379.00797	567.38269	-1266.0405	331.61063	535.88849	-1298.6475	368.84918	504.08167	-1280.6758	326.1496	277.64679	-1409.2695	336.43753	213.02432	-1414.7914	363.85858	262.42551	-1380.0006	335.49927	72.758499	-1446.2959	262.72046	70.083206	-1412.1824	338.24319	29.740545	-1393.309	258.77707	26.493406	-1566.8262	199.82121	35.105644	-1534.4069	221.78564	33.673	-1556.2273	246.97954	985.8465	-748.36902	198.07626	976.48456	-748.02991	185.87759	1035.947	-757.98639	227.62468	671.60583	-650.62653	264.3075	696.66846	-1336.1187	228.83029	682.3172	-1287.7085	213.69739	619.87097	-1307.6155	174.59586	1066.7693	-1231.7826	202.43094	1013.903	-1252.6823	220.06586	1085.1515	-1223.7026
1919	9.585	-42.696995	1407.0317	-1005.7767	-30.345694	1392.4539	-943.86273	-3.8094895	1369.4011	-1073.3822	220.24338	236.59442	-2125.7058	260.17813	249.46896	94.692268	440.16513	878.82849	-1031.7954	444.23001	882.53601	-959.24908	433.07498	890.06622	-996.14648	143.3992	1230.0629	-987.83344	66.841339	1093.6655	-991.10144	332.65457	1039.7373	-1000.7927	68.86882	1137.2006	-1157.4514	95.674576	1139.4585	-823.66797	383.81229	574.60919	-702.2218	373.70895	510.46716	-690.99237	337.61221	539.45703	-668.9751	324.58121	245.78534	-553.78369	361.09763	228.65799	-584.84283	334.04236	180.05302	-550.13452	270.81537	68.799942	-577.48541	328.71158	72.076332	-531.82288	333.31247	31.471155	-582.81006	186.19745	44.795826	-453.96106	254.19292	27.617901	-410.59418	207.53165	39.469429	-426.54172	378.0535	567.61884	-1265.1819	330.91199	535.61969	-1297.871	368.39865	504.06485	-1279.8685	326.15176	277.5943	-1408.6432	336.49033	213.03877	-1414.3265	363.8717	262.29559	-1379.3896	335.51883	72.744743	-1446.3009	262.84122	70.031288	-1412.1356	338.2562	29.71545	-1393.3092	258.77142	26.485813	-1566.8107	199.84138	35.134956	-1534.4106	221.77502	33.65453	-1556.2308	248.07935	988.96381	-747.52679	199.05309	979.95325	-746.77325	187.10805	1039.3203	-757.32159	228.30664	675.815	-646.36438	265.76727	701.23578	-1339.8199	230.09482	686.24805	-1291.8525	215.01967	624.07629	-1312.4792	175.83267	1070.4088	-1231.9139	203.42442	1017.644	-1253.1881	221.35983	1088.4677	-1223.4543
1920	9.59	-40.451099	1410.4263	-1005.2985	-28.095274	1395.6133	-943.43958	-1.6786904	1372.8492	-1072.7208	220.26158	236.60814	-2125.7173	260.207	249.46938	94.69207	439.41043	879.18616	-1031.707	443.59375	882.76056	-959.18231	432.28766	890.55084	-995.98511	145.21271	1232.5752	-987.68726	68.270493	1096.729	-990.80597	333.07672	1040.547	-1000.7339	70.242096	1141.184	-1157.1776	97.128334	1142.709	-823.54962	383.16824	574.92706	-702.39966	373.07895	510.65051	-691.25372	337.07626	539.22772	-669.81885	324.60648	245.76935	-553.95178	361.07413	228.61707	-585.09454	333.81058	180.0587	-550.27612	270.78973	68.762077	-577.50201	328.6759	72.083412	-531.85809	333.30734	31.446171	-582.82599	186.17926	44.788685	-453.96039	255.06377	29.329609	-411.04941	207.50415	39.487114	-426.54254	377.38873	567.51642	-1264.5732	330.40646	535.30743	-1297.1665	367.95374	504.07034	-1279.0835	325.74661	277.39374	-1407.8561	336.86407	212.66101	-1413.979	363.81152	262.25818	-1378.8318	335.5079	72.773819	-1446.2825	262.84131	70.007988	-1412.1222	338.26468	29.721453	-1393.3176	258.76828	26.490145	-1566.8121	199.8192	35.130371	-1534.4126	221.77542	33.655079	-1556.2175	249.10178	992.17468	-746.61908	200.04083	983.46136	-745.47314	188.37946	1042.7461	-756.63721	228.97885	680.20929	-641.87073	267.22849	705.87555	-1343.5721	231.12234	689.34546	-1296.907	216.35197	628.3573	-1317.4415	177.3756	1073.7159	-1232.3029	204.61697	1021.328	-1253.6395	222.65903	1091.8282	-1223.2495
